<?xml version="1.0" encoding="UTF-8" standalone="no"?>
<!DOCTYPE svg PUBLIC "-//W3C//DTD SVG 1.1//EN" "http://www.w3.org/Graphics/SVG/1.1/DTD/svg11.dtd">
<!-- Created with Vectornator (http://vectornator.io/) -->
<svg height="100%" stroke-miterlimit="10" style="fill-rule:nonzero;clip-rule:evenodd;stroke-linecap:round;stroke-linejoin:round;" version="1.1" viewBox="0 0 159.13 154.51" width="100%" xml:space="preserve" xmlns="http://www.w3.org/2000/svg" xmlns:xlink="http://www.w3.org/1999/xlink">
<defs/>
<clipPath id="ArtboardFrame">
<rect height="154.51" width="159.13" x="0" y="0"/>
</clipPath>
<g clip-path="url(#ArtboardFrame)" id="Layer-1">
<path d="M155.708 96.913C143.821 84.57 111.364 89.599 103.593 90.513C92.165 79.541 84.394 66.284 81.651 61.713C85.765 49.37 88.507 37.027 88.965 23.771C88.965 12.342 84.394-7.10543e-15 71.593-7.10543e-15C67.022-7.10543e-15 62.907 2.742 60.621 6.399C55.136 16 57.421 35.2 66.107 54.857C61.079 69.028 56.507 82.742 43.707 106.971C30.45 112.455 2.56396 125.256 0.277962 138.971C-0.636038 143.084 0.734962 147.2 3.93496 150.399C7.13496 153.142 11.249 154.513 15.364 154.513C32.278 154.513 48.735 131.2 60.164 111.541C69.764 108.342 84.85 103.77 99.936 101.027C117.764 116.57 133.307 118.855 141.536 118.855C152.507 118.855 156.622 114.284 157.993 110.169C160.278 105.599 158.907 100.57 155.708 96.913ZM144.278 104.685C143.821 107.885 139.708 111.084 132.393 109.256C123.707 106.971 115.936 102.856 109.079 97.37C115.022 96.455 128.278 95.084 137.879 96.913C141.536 97.827 145.193 100.113 144.278 104.685ZM67.936 10.513C68.85 9.142 70.222 8.228 71.593 8.228C75.707 8.228 76.621 13.256 76.621 17.371C76.164 26.972 74.335 36.571 71.136 45.714C64.278 27.428 65.65 14.627 67.936 10.513ZM67.022 99.199C70.679 91.885 75.708 79.084 77.536 73.598C81.65 80.454 88.507 88.684 92.165 92.341C92.165 92.799 77.993 95.541 67.022 99.199ZM40.05 117.485C29.536 134.856 18.564 145.827 12.621 145.827C11.707 145.827 10.792 145.37 9.87796 144.913C8.50596 143.998 8.04896 142.627 8.50596 140.799C9.87796 134.399 21.764 125.713 40.05 117.485Z" fill="#ffffff" fill-rule="nonzero" opacity="1" stroke="none"/>
</g>
</svg>
