<svg width="59" height="23" viewBox="0 0 59 23" fill="none" xmlns="http://www.w3.org/2000/svg">
<g id="Group 7">
<g id="Group 6">
<path id="p" d="M25.356 12.276C25.476 11.972 25.536 11.68 25.536 11.4C25.536 11.032 25.432 10.732 25.224 10.5C24.912 10.132 24.388 9.95601 23.652 9.97201C23.508 11.236 23.396 12.76 23.316 14.544C23.772 14.304 24.18 13.988 24.54 13.596C24.9 13.196 25.172 12.756 25.356 12.276ZM23.772 9.03601C23.86 9.02801 23.996 9.02401 24.18 9.02401C25.156 9.02401 25.884 9.26401 26.364 9.74401C26.724 10.096 26.904 10.548 26.904 11.1C26.904 11.388 26.84 11.732 26.712 12.132C26.448 12.884 26.008 13.56 25.392 14.16C24.776 14.752 24.072 15.204 23.28 15.516C23.248 16.332 23.224 17.044 23.208 17.652C23.192 18.268 23.18 18.78 23.172 19.188C23.164 20.164 23.14 21.144 23.1 22.128C23.092 22.296 22.972 22.444 22.74 22.572C22.508 22.7 22.272 22.764 22.032 22.764C21.752 22.764 21.612 22.66 21.612 22.452L21.624 21.492C21.632 21.18 21.644 20.428 21.66 19.236C21.684 18.044 21.72 16.932 21.768 15.9C21.552 15.924 21.34 15.936 21.132 15.936C20.98 15.936 20.868 15.912 20.796 15.864C20.716 15.816 20.676 15.752 20.676 15.672C20.676 15.528 20.776 15.376 20.976 15.216C21.168 15.056 21.364 14.976 21.564 14.976C21.676 14.976 21.756 14.972 21.804 14.964C21.892 13.244 22.028 11.592 22.212 10.008C22.156 9.97601 22.128 9.92401 22.128 9.85201C22.128 9.75601 22.18 9.64401 22.284 9.51601C22.284 9.46801 22.292 9.38801 22.308 9.27601C22.332 9.10801 22.46 8.96401 22.692 8.84401C22.924 8.71601 23.148 8.65201 23.364 8.65201C23.5 8.65201 23.604 8.68001 23.676 8.73601C23.756 8.79201 23.788 8.87601 23.772 8.98801V9.03601Z" fill="#00274C"/>
<path id="e" d="M20.856 14.46C20.976 14.5 21.036 14.572 21.036 14.676C21.036 14.804 20.96 14.944 20.808 15.096C20.64 15.264 20.424 15.348 20.16 15.348C20.032 15.348 19.924 15.332 19.836 15.3C19.412 15.164 19.028 15.096 18.684 15.096C18.084 15.096 17.472 15.288 16.848 15.672C16.744 15.744 16.616 15.804 16.464 15.852C16.32 15.892 16.184 15.912 16.056 15.912C15.936 15.912 15.84 15.892 15.768 15.852C15.696 15.804 15.66 15.732 15.66 15.636C15.66 15.58 15.668 15.532 15.684 15.492C15.916 14.844 16.1 14.26 16.236 13.74C16.38 13.22 16.476 12.692 16.524 12.156C16.596 11.436 16.632 10.908 16.632 10.572C16.632 9.68399 16.46 9.00399 16.116 8.53199C16.076 8.48399 16.056 8.41999 16.056 8.33999C16.056 8.17999 16.168 8.03199 16.392 7.89599C16.616 7.75199 16.836 7.67999 17.052 7.67999C17.196 7.67999 17.3 7.71199 17.364 7.77599C17.468 7.81599 17.536 7.87999 17.568 7.96799C17.768 8.49599 18.044 8.94399 18.396 9.31199C18.748 9.67199 19.164 9.85199 19.644 9.85199C19.732 9.85199 19.864 9.83599 20.04 9.80399C20.152 9.78799 20.224 9.77999 20.256 9.77999C20.392 9.77999 20.492 9.81199 20.556 9.87599C20.628 9.93199 20.664 10.012 20.664 10.116C20.664 10.228 20.616 10.34 20.52 10.452C20.432 10.564 20.312 10.644 20.16 10.692C19.832 10.804 19.504 10.86 19.176 10.86C18.784 10.86 18.408 10.78 18.048 10.62C18.032 11.068 18.012 11.404 17.988 11.628L17.904 12.384C18.216 12.328 18.528 12.28 18.84 12.24L19.008 12.228C19.328 12.228 19.488 12.336 19.488 12.552C19.488 12.696 19.408 12.824 19.248 12.936C19.088 13.048 18.924 13.12 18.756 13.152C18.508 13.2 18.168 13.252 17.736 13.308C17.648 13.7 17.552 14.068 17.448 14.412C17.976 14.22 18.512 14.124 19.056 14.124C19.656 14.124 20.256 14.236 20.856 14.46Z" fill="#00274C"/>
<path id="e_2" d="M14.856 14.46C14.976 14.5 15.036 14.572 15.036 14.676C15.036 14.804 14.96 14.944 14.808 15.096C14.64 15.264 14.424 15.348 14.16 15.348C14.032 15.348 13.924 15.332 13.836 15.3C13.412 15.164 13.028 15.096 12.684 15.096C12.084 15.096 11.472 15.288 10.848 15.672C10.744 15.744 10.616 15.804 10.464 15.852C10.32 15.892 10.184 15.912 10.056 15.912C9.936 15.912 9.84 15.892 9.768 15.852C9.696 15.804 9.66 15.732 9.66 15.636C9.66 15.58 9.668 15.532 9.684 15.492C9.916 14.844 10.1 14.26 10.236 13.74C10.38 13.22 10.476 12.692 10.524 12.156C10.596 11.436 10.632 10.908 10.632 10.572C10.632 9.68399 10.46 9.00399 10.116 8.53199C10.076 8.48399 10.056 8.41999 10.056 8.33999C10.056 8.17999 10.168 8.03199 10.392 7.89599C10.616 7.75199 10.836 7.67999 11.052 7.67999C11.196 7.67999 11.3 7.71199 11.364 7.77599C11.468 7.81599 11.536 7.87999 11.568 7.96799C11.768 8.49599 12.044 8.94399 12.396 9.31199C12.748 9.67199 13.164 9.85199 13.644 9.85199C13.732 9.85199 13.864 9.83599 14.04 9.80399C14.152 9.78799 14.224 9.77999 14.256 9.77999C14.392 9.77999 14.492 9.81199 14.556 9.87599C14.628 9.93199 14.664 10.012 14.664 10.116C14.664 10.228 14.616 10.34 14.52 10.452C14.432 10.564 14.312 10.644 14.16 10.692C13.832 10.804 13.504 10.86 13.176 10.86C12.784 10.86 12.408 10.78 12.048 10.62C12.032 11.068 12.012 11.404 11.988 11.628L11.904 12.384C12.216 12.328 12.528 12.28 12.84 12.24L13.008 12.228C13.328 12.228 13.488 12.336 13.488 12.552C13.488 12.696 13.408 12.824 13.248 12.936C13.088 13.048 12.924 13.12 12.756 13.152C12.508 13.2 12.168 13.252 11.736 13.308C11.648 13.7 11.552 14.068 11.448 14.412C11.976 14.22 12.512 14.124 13.056 14.124C13.656 14.124 14.256 14.236 14.856 14.46Z" fill="#00274C"/>
<path id="D" d="M0.852 6.084C0.956 6.028 1.068 6 1.188 6C1.356 6 1.512 6.048 1.656 6.144C1.712 6.184 1.764 6.224 1.812 6.264C1.86 6.304 1.904 6.34 1.944 6.372C1.992 6.404 2.056 6.436 2.136 6.468C2.216 6.5 2.284 6.532 2.34 6.564C2.58 6.692 2.932 6.892 3.396 7.164L4.464 7.776C5.08 8.128 5.62 8.432 6.084 8.688L6.852 9.096C7.308 9.328 7.692 9.536 8.004 9.72C8.324 9.904 8.62 10.112 8.892 10.344C9.092 10.528 9.248 10.708 9.36 10.884C9.472 11.06 9.528 11.252 9.528 11.46L9.516 11.592C9.436 12.056 9.192 12.5 8.784 12.924C8.472 13.26 8.104 13.548 7.68 13.788C7.264 14.028 6.784 14.256 6.24 14.472C5.312 14.824 4.248 15.14 3.048 15.42C2.92 15.452 2.828 15.472 2.772 15.48L2.28 15.6L1.584 15.732C1.368 15.772 1.104 15.812 0.792 15.852C0.76 15.86 0.7 15.876 0.612 15.9C0.532 15.916 0.46 15.924 0.396 15.924C0.364 15.924 0.316 15.916 0.252 15.9C0.084 15.868 0 15.768 0 15.6C0 15.488 0.04 15.36 0.12 15.216C0.192 15.064 0.268 14.944 0.348 14.856C0.588 14.576 0.94 14.384 1.404 14.28C1.5 14.256 1.556 14.232 1.572 14.208C1.596 14.176 1.612 14.108 1.62 14.004C1.62 13.86 1.628 13.644 1.644 13.356C1.708 12.596 1.748 12.016 1.764 11.616C1.796 11.232 1.816 10.944 1.824 10.752C1.832 10.712 1.84 10.66 1.848 10.596C1.856 10.524 1.86 10.44 1.86 10.344C1.86 10.24 1.844 10.144 1.812 10.056C1.644 9.648 1.376 9.144 1.008 8.544C1.008 8.552 1.012 8.564 1.02 8.58C1.036 8.588 1.048 8.608 1.056 8.64C0.952 8.456 0.78 8.188 0.54 7.836C0.508 7.796 0.472 7.744 0.432 7.68C0.392 7.616 0.356 7.564 0.324 7.524C0.3 7.5 0.268 7.468 0.228 7.428C0.188 7.38 0.156 7.34 0.132 7.308C0.092 7.228 0.072 7.156 0.072 7.092C0.072 6.916 0.16 6.732 0.336 6.54C0.504 6.348 0.676 6.196 0.852 6.084ZM3.648 13.812C4.376 13.652 5.164 13.44 6.012 13.176C6.468 13.032 6.84 12.9 7.128 12.78C7.416 12.66 7.688 12.504 7.944 12.312C7.712 12.032 7.448 11.792 7.152 11.592C6.864 11.384 6.452 11.12 5.916 10.8L5.016 10.26L3.564 9.36C3.86 10.2 4.008 10.988 4.008 11.724C4.008 12.26 3.932 12.792 3.78 13.32L3.648 13.812Z" fill="#00274C"/>
<path id="b" d="M51.187 7.2576V12.4666C51.187 12.6944 51.3055 12.8129 51.5425 12.8221H56.3277C56.5008 12.8129 56.6512 12.74 56.7788 12.6033C56.9064 12.4575 56.9976 12.2934 57.0523 12.1111C57.1161 11.9197 57.148 11.7283 57.148 11.5369C57.148 11.3546 57.1161 11.1723 57.0523 10.99C56.9976 10.7986 56.9064 10.6346 56.7788 10.4978C56.6512 10.352 56.5008 10.2791 56.3277 10.2791H52.8277C52.5724 10.2791 52.3537 10.1925 52.1714 10.0193C51.9982 9.83703 51.9116 9.61828 51.9116 9.36307C51.9116 9.10786 52.0028 8.89367 52.1851 8.72049C52.3583 8.5382 52.5724 8.44705 52.8277 8.44705H56.273C56.911 8.45617 57.4351 8.63846 57.8452 8.99393C58.2645 9.34028 58.5607 9.73677 58.7339 10.1834C58.9162 10.6209 59.0073 11.0766 59.0073 11.5506C59.0073 12.0063 58.9162 12.4575 58.7339 12.9041C58.5516 13.3416 58.2554 13.7381 57.8452 14.0935C57.4351 14.4399 56.829 14.6267 56.0269 14.6541H50.2847C50.0295 14.6541 49.8107 14.5721 49.6284 14.408C49.4461 14.2348 49.3504 14.0206 49.3413 13.7654V7.2576C49.3413 7.00239 49.4325 6.79276 49.6148 6.62869C49.8062 6.45552 50.0295 6.36893 50.2847 6.36893C50.8316 6.4145 51.1323 6.71072 51.187 7.2576Z" fill="#00274C"/>
<path id="o" d="M41.1714 14.6541C40.3693 14.6267 39.7632 14.4399 39.353 14.0935C38.9429 13.7381 38.6467 13.3416 38.4644 12.9041C38.2821 12.4575 38.1909 12.0063 38.1909 11.5506C38.1909 11.0766 38.2775 10.6209 38.4507 10.1834C38.633 9.73677 38.9292 9.34028 39.3394 8.99393C39.7586 8.63846 40.2873 8.45617 40.9253 8.44705H45.355C45.993 8.45617 46.5171 8.63846 46.9273 8.99393C47.3465 9.34028 47.6428 9.73677 47.8159 10.1834C47.9982 10.6209 48.0894 11.0766 48.0894 11.5506C48.0894 12.0063 47.9982 12.4575 47.8159 12.9041C47.6336 13.3416 47.3374 13.7381 46.9273 14.0935C46.5171 14.4399 45.911 14.6267 45.1089 14.6541H41.1714ZM40.8706 10.2791C40.6974 10.2791 40.5471 10.352 40.4195 10.4978C40.2918 10.6346 40.1961 10.7986 40.1323 10.99C40.0777 11.1723 40.0503 11.3546 40.0503 11.5369C40.0503 11.7283 40.0777 11.9197 40.1323 12.1111C40.1961 12.2934 40.2918 12.4575 40.4195 12.6033C40.5471 12.74 40.6974 12.8129 40.8706 12.8221H45.4097C45.5829 12.8129 45.7333 12.74 45.8609 12.6033C45.9885 12.4575 46.0796 12.2934 46.1343 12.1111C46.1981 11.9197 46.23 11.7283 46.23 11.5369C46.23 11.3546 46.1981 11.1723 46.1343 10.99C46.0796 10.7986 45.9885 10.6346 45.8609 10.4978C45.7333 10.352 45.5829 10.2791 45.4097 10.2791H40.8706Z" fill="#00274C"/>
<path id="R" d="M30.187 13.9568C30.1323 14.5037 29.8316 14.7999 29.2847 14.8455C29.0295 14.8455 28.8062 14.7635 28.6148 14.5994C28.4325 14.4262 28.3413 14.212 28.3413 13.9568V7.47635C28.3504 7.22114 28.4461 7.01151 28.6284 6.84744C28.8107 6.67427 29.0295 6.58768 29.2847 6.58768H29.9546H31.6362H35.0132C35.0679 6.58768 35.1226 6.59223 35.1773 6.60135H35.2593C35.8973 6.61958 36.4214 6.76541 36.8316 7.03885C37.2417 7.31229 37.5379 7.62674 37.7202 7.98221C37.9025 8.32856 37.9937 8.67947 37.9937 9.03494C37.9937 9.39953 37.9025 9.75955 37.7202 10.115C37.5471 10.4614 37.2508 10.7713 36.8316 11.0447C36.4214 11.3181 35.8973 11.464 35.2593 11.4822H32.853C32.926 11.9379 33.0764 12.2752 33.3042 12.4939C33.523 12.7127 33.801 12.8221 34.1382 12.8221H37.0913C37.3465 12.8312 37.5562 12.9269 37.7202 13.1092C37.8934 13.2915 37.98 13.5102 37.98 13.7654C37.9709 14.0115 37.8797 14.2211 37.7066 14.3943C37.5425 14.5584 37.3374 14.645 37.0913 14.6541H33.8921C33.2176 14.6632 32.607 14.3989 32.0601 13.8611C31.5132 13.3234 31.1805 12.6853 31.062 11.9471C30.898 11.1267 30.8159 10.6665 30.8159 10.5662C30.8159 10.311 30.9025 10.0968 31.0757 9.92361C31.258 9.74132 31.4767 9.65018 31.732 9.65018H35.3413C35.5145 9.64106 35.6558 9.6046 35.7652 9.5408C35.8836 9.46789 35.9702 9.39041 36.0249 9.30838C36.0796 9.21723 36.107 9.12609 36.107 9.03494C36.107 8.9438 36.0796 8.85721 36.0249 8.77518C35.9702 8.68403 35.8836 8.60656 35.7652 8.54276C35.6558 8.46984 35.5145 8.42882 35.3413 8.41971H31.6362H30.5425C30.3055 8.42882 30.187 8.54731 30.187 8.77518V13.9568Z" fill="#00274C"/>
</g>
</g>
</svg>
